<?xml version="1.0" standalone="no"?>
<!DOCTYPE svg PUBLIC "-//W3C//DTD SVG 20010904//EN"
 "http://www.w3.org/TR/2001/REC-SVG-20010904/DTD/svg10.dtd">
<svg version="1.0" xmlns="http://www.w3.org/2000/svg"
 width="1309.000000pt" height="260.000000pt" viewBox="0 0 1309.000000 260.000000"
 preserveAspectRatio="xMidYMid meet">
<metadata>
Created by potrace 1.16, written by Peter Selinger 2001-2019
</metadata>
<g transform="translate(0.000000,260.000000) scale(0.100000,-0.100000)"
fill="#000000" stroke="none">
<path d="M905 1674 c-370 -66 -651 -258 -770 -528 -35 -79 -65 -193 -64 -241
0 -35 3 -29 24 45 60 220 182 390 366 511 212 139 551 216 836 189 102 -9 257
-35 274 -45 3 -2 34 -49 68 -105 98 -155 89 -107 -11 62 l-39 67 -87 20 c-48
11 -116 25 -152 30 -92 15 -350 12 -445 -5z"/>
<path d="M6593 1645 c-58 -25 -67 -52 -73 -219 l-5 -151 -550 -2 c-302 -2
-1243 1 -2090 6 l-1540 8 -98 26 c-164 43 -343 61 -612 61 -407 0 -1223 -18
-1175 -25 133 -21 510 -30 850 -20 373 11 595 4 777 -24 270 -40 389 -86 447
-172 14 -20 35 -75 48 -122 25 -94 37 -85 18 13 -20 103 -66 173 -146 223 -15
9 432 12 2026 10 l2045 -2 5 -141 c5 -151 13 -176 67 -211 26 -17 106 -18
1418 -18 1319 0 1392 1 1423 18 18 10 42 32 52 50 19 30 20 52 20 317 0 321
-4 339 -70 372 -33 17 -121 18 -1420 18 -1155 -1 -1390 -3 -1417 -15z m2836
-19 c15 -8 32 -26 39 -40 16 -35 18 -597 2 -626 -6 -12 -26 -30 -43 -40 -31
-19 -63 -20 -1417 -20 -1372 0 -1385 0 -1418 20 -58 35 -62 59 -62 356 0 291
5 320 59 349 39 21 2798 22 2840 1z"/>
<path d="M7787 1486 c-89 -32 -141 -91 -160 -181 -39 -188 144 -344 310 -264
43 21 93 74 93 99 0 7 -10 -2 -23 -21 -65 -96 -170 -106 -249 -22 -40 41 -58
94 -58 166 0 120 44 195 131 222 32 10 37 14 19 14 -14 0 -42 -6 -63 -13z"/>
<path d="M8246 1430 c-15 -34 -40 -98 -56 -143 -56 -166 -81 -218 -114 -238
l-31 -19 80 0 c79 1 80 1 46 15 -31 14 -33 18 -29 53 3 20 13 54 21 75 l16 38
82 -3 82 -3 18 -50 c28 -79 25 -103 -13 -114 -26 -7 -9 -9 72 -9 58 1 95 3 83
5 -33 6 -57 43 -89 131 -64 178 -120 316 -130 319 -6 2 -23 -24 -38 -57z"/>
<path d="M6685 1473 c44 -11 45 -17 45 -212 0 -200 -3 -216 -50 -224 -14 -2
22 -5 80 -5 75 0 97 2 76 8 -16 5 -33 15 -37 22 -5 7 -9 52 -9 101 l0 87 49 0
c73 0 97 -25 116 -120 9 -44 22 -80 32 -87 10 -8 43 -13 77 -12 54 1 57 2 30
10 -42 12 -50 24 -77 105 -17 54 -29 73 -55 90 l-32 22 33 11 c66 22 102 89
75 141 -7 13 -29 35 -47 47 -32 22 -44 23 -180 22 -80 -1 -137 -4 -126 -6z
m261 -37 c64 -54 18 -147 -80 -161 -73 -11 -76 -7 -76 88 0 46 3 87 7 90 3 4
32 7 64 7 46 0 63 -5 85 -24z"/>
<path d="M7180 1467 l25 -13 3 -179 c1 -99 0 -190 -3 -202 -3 -15 -17 -26 -38
-32 -23 -6 27 -9 169 -10 l202 -1 6 31 c11 58 8 64 -20 35 -32 -32 -81 -46
-156 -46 -85 0 -98 16 -98 125 l0 85 41 0 c50 0 74 -12 93 -48 14 -25 15 -22
15 63 0 89 -1 89 -16 58 -18 -36 -50 -53 -99 -53 l-35 0 3 88 3 87 70 3 c88 4
106 -1 152 -41 l36 -32 -6 34 c-4 18 -7 40 -7 47 0 11 -34 14 -182 14 -154 0
-179 -2 -158 -13z"/>
<path d="M8577 1473 c47 -9 53 -35 53 -218 0 -187 -6 -210 -58 -218 -15 -2 64
-5 174 -6 l202 -1 7 57 c4 31 9 63 13 72 3 9 -14 -6 -38 -32 -54 -61 -86 -77
-154 -77 -85 0 -86 2 -86 203 0 189 6 212 58 220 15 2 -22 4 -83 4 -60 0 -100
-2 -88 -4z"/>
<path d="M9022 1468 c41 -14 51 -66 46 -238 -3 -80 -8 -153 -12 -162 -5 -10
-22 -22 -40 -27 -21 -6 30 -9 165 -10 l197 -1 11 63 c6 35 11 67 11 71 0 4
-15 -12 -33 -36 -42 -56 -87 -78 -158 -78 -84 0 -84 1 -82 208 2 187 7 205 57
215 11 2 -26 5 -84 5 -81 0 -99 -2 -78 -10z"/>
<path d="M9929 1484 c20 -25 21 -40 21 -213 0 -201 -3 -228 -29 -234 -9 -3 13
-5 48 -6 56 -1 62 1 47 12 -16 12 -18 26 -15 111 4 93 5 99 32 122 34 29 57
30 88 6 19 -16 23 -31 27 -105 5 -99 -1 -134 -26 -140 -9 -3 12 -5 48 -6 61
-1 63 0 42 15 -21 14 -22 22 -20 107 3 110 -4 132 -44 153 -37 19 -85 12 -122
-17 l-26 -20 0 120 0 121 -46 0 -45 0 20 -26z"/>
<path d="M10915 1503 l-40 -4 23 -18 c22 -16 23 -25 29 -197 7 -200 3 -231
-30 -244 -16 -6 -1 -9 53 -9 52 0 68 3 54 9 -31 12 -43 94 -18 121 38 42 79
11 98 -73 l11 -53 60 -1 c33 -1 49 0 35 3 -37 7 -48 20 -65 78 -8 30 -26 67
-40 83 l-24 29 32 30 c18 17 46 38 62 46 l30 16 -64 1 c-59 0 -63 -1 -45 -14
17 -13 18 -17 4 -39 -22 -36 -88 -90 -100 -82 -7 4 -11 57 -10 148 1 181 1
177 -7 175 -5 -1 -26 -3 -48 -5z"/>
<path d="M9692 1304 c-86 -44 -109 -163 -43 -233 52 -56 165 -51 196 9 20 39
18 63 -2 25 -34 -62 -83 -72 -133 -27 -57 50 -60 163 -7 212 32 31 67 22 96
-22 28 -44 51 -49 51 -13 0 50 -96 80 -158 49z"/>
<path d="M10360 1300 c-49 -30 -73 -66 -77 -119 -8 -86 52 -151 137 -151 39 0
102 28 108 48 2 8 -8 5 -30 -8 -47 -28 -91 -26 -129 8 -24 22 -32 37 -33 68
l-1 39 103 3 c63 2 102 7 102 13 0 22 -32 75 -56 92 -38 28 -84 31 -124 7z"/>
<path d="M10667 1298 c-39 -23 -77 -86 -77 -128 0 -43 39 -107 74 -124 65 -31
141 -13 164 39 18 40 14 44 -8 8 -22 -36 -60 -50 -99 -37 -70 25 -98 161 -45
223 39 47 93 38 112 -19 12 -32 36 -40 46 -14 8 21 -11 44 -51 61 -45 18 -72
16 -116 -9z"/>
<path d="M11320 1300 c-49 -30 -73 -66 -77 -119 -8 -86 52 -151 137 -151 39 0
102 28 108 48 2 8 -8 5 -30 -8 -47 -28 -91 -26 -129 8 -24 22 -32 37 -33 68
l-1 39 100 5 c93 5 100 6 97 25 -12 82 -102 126 -172 85z"/>
<path d="M11575 1311 c-35 -6 -37 -8 -17 -14 21 -8 22 -13 22 -128 0 -115 -1
-120 -22 -129 -17 -6 -5 -9 47 -9 54 0 66 2 52 10 -16 10 -18 23 -16 107 2 95
-7 173 -20 171 -3 -1 -24 -5 -46 -8z"/>
<path d="M429 1066 c-59 -21 -96 -53 -123 -108 -30 -60 -34 -121 -10 -176 64
-153 276 -185 382 -56 140 170 -40 415 -249 340z m138 -83 c92 -43 98 -186 11
-238 -126 -74 -269 72 -190 194 38 57 113 76 179 44z"/>
<path d="M2166 1066 c-89 -33 -156 -141 -142 -228 12 -77 56 -138 121 -170
146 -73 324 33 325 193 0 69 -43 147 -102 182 -57 35 -143 45 -202 23z m144
-81 c66 -34 92 -110 62 -179 -40 -90 -157 -109 -226 -37 -40 41 -47 115 -17
164 37 61 119 84 181 52z"/>
<path d="M1263 860 c-282 -3 -515 -9 -519 -13 -4 -3 -4 -13 0 -22 5 -14 49
-15 433 -10 709 9 835 14 831 34 -4 20 -32 20 -745 11z"/>
</g>
</svg>
